<svg width="400" height="400" viewBox="0 0 400 400" fill="none" xmlns="http://www.w3.org/2000/svg">
<rect width="400" height="400" fill="#082D63"/>
<path d="M199.935 44.3145C113.982 44.3145 44.3149 113.981 44.3149 199.935C44.3149 285.888 113.982 355.555 199.935 355.555C285.889 355.555 355.556 285.888 355.556 199.935C355.556 113.981 285.865 44.3145 199.935 44.3145ZM254.334 277.745H145.513C132.588 277.745 122.101 267.258 122.101 254.333V145.536C122.101 132.611 132.588 122.125 145.513 122.125H254.334C267.259 122.125 277.746 132.611 277.746 145.536V254.357C277.746 267.282 267.259 277.769 254.334 277.769V277.745Z" fill="#FF562E"/>
</svg>
