<svg width="151" height="100" viewBox="0 0 151 100" fill="none" xmlns="http://www.w3.org/2000/svg">
<path d="M75.359 78.1123C59.8565 78.1123 47.2467 65.5024 47.2467 50C47.2467 34.4975 59.8565 21.8877 75.359 21.8877C90.8615 21.8877 103.471 34.4975 103.471 50C103.471 65.5024 90.8615 78.1123 75.359 78.1123ZM75.359 30.9942C64.8812 30.9942 56.3639 39.5221 56.3639 49.9893C56.3639 60.4564 64.8919 68.9843 75.359 68.9843C85.8261 68.9843 94.3541 60.4564 94.3541 49.9893C94.3541 39.5221 85.8368 30.9942 75.359 30.9942V30.9942Z" fill="#5E7699"/>
<path d="M75.3589 100C54.039 100 33.5547 83.5655 3.22476 53.2248L0 50L3.22476 46.7752C33.5655 16.4345 54.039 0 75.3589 0C96.6788 0 117.163 16.4345 147.493 46.7752L150.718 50L147.493 53.2248C117.152 83.5655 96.6788 100 75.3589 100ZM12.9098 50C39.7257 76.5374 57.9066 90.8828 75.3589 90.8828C92.8112 90.8828 111.003 76.5481 137.808 50C110.992 23.4626 92.8112 9.1172 75.3589 9.1172C57.9066 9.1172 39.715 23.4519 12.9098 50V50Z" fill="url(#paint0_linear_3733_5930)"/>
<defs>
<linearGradient id="paint0_linear_3733_5930" x1="37.6776" y1="87.6732" x2="113.04" y2="12.3111" gradientUnits="userSpaceOnUse">
<stop stop-color="#FF7044"/>
<stop offset="1" stop-color="#FF7044"/>
</linearGradient>
</defs>
</svg>
